####
#
# OBJ File Generated by Meshlab
#
####
# Object cube_8p.obj
#
# Vertices: 8
# Faces: 12
#
####
mtllib ./cube_8p.obj.mtl

vn 0.816497 0.408248 -0.408248
v 1.000000 1.000000 -1.000000
vn 0.333333 -0.666667 -0.666667
v 1.000000 -1.000000 -1.000000
vn 0.333333 0.666667 0.666667
v 1.000000 1.000000 1.000000
vn 0.816497 -0.408248 0.408248
v 1.000000 -1.000000 1.000000
vn -0.333333 0.666667 -0.666667
v -1.000000 1.000000 -1.000000
vn -0.816497 -0.408248 -0.408248
v -1.000000 -1.000000 -1.000000
vn -0.816497 0.408248 0.408248
v -1.000000 1.000000 1.000000
vn -0.333333 -0.666667 0.666667
v -1.000000 -1.000000 1.000000
# 8 vertices, 0 vertices normals


usemtl material_0
vt 0.875000 0.500000
vt 0.625000 0.750000
vt 0.625000 0.500000
f 5/1/5 3/2/3 1/3/1
vt 0.375000 1.000000
vt 0.375000 0.750000
f 3/2/3 8/4/8 4/5/4
vt 0.625000 0.000000
vt 0.375000 0.250000
vt 0.375000 0.000000
f 7/6/7 6/7/6 8/8/8
vt 0.375000 0.500000
vt 0.125000 0.750000
vt 0.125000 0.500000
f 2/9/2 8/10/8 6/11/6
f 1/3/1 4/5/4 2/9/2
vt 0.625000 0.250000
f 5/12/5 2/9/2 6/7/6
vt 0.875000 0.750000
f 5/1/5 7/13/7 3/2/3
vt 0.625000 1.000000
f 3/2/3 7/14/7 8/4/8
f 7/6/7 5/12/5 6/7/6
f 2/9/2 4/5/4 8/10/8
f 1/3/1 3/2/3 4/5/4
f 5/12/5 1/3/1 2/9/2
# 12 faces, 14 coords texture

# End of File
